<svg xmlns="http://www.w3.org/2000/svg" xmlns:xlink="http://www.w3.org/1999/xlink" width="500" zoomAndPan="magnify" viewBox="0 0 375 374.999991" height="500" preserveAspectRatio="xMidYMid meet" version="1.0"><path fill="#e40428" d="M 238.433594 3.015625 L 238.433594 323.410156 L 150.914062 353.605469 L 146.386719 178.488281 L 101.953125 187.152344 Z M 238.433594 3.015625 " fill-opacity="1" fill-rule="nonzero"/><path fill="#00a3e2" d="M 238.417969 3.015625 L 238.417969 233.808594 C 238.378906 235.613281 236.382812 237.296875 233.097656 237.296875 C 222.160156 237.296875 220.695312 212.632812 196.125 212.632812 C 175.394531 212.632812 176.539062 244.414062 176.539062 244.414062 C 176.539062 244.414062 175.394531 276.199219 196.125 276.199219 C 220.714844 276.199219 222.160156 251.535156 233.097656 251.535156 C 236.382812 251.535156 238.480469 252.625 238.417969 255.023438 L 238.417969 323.386719 L 314.265625 297.296875 L 318.222656 145.058594 L 347.519531 139.328125 Z M 238.417969 3.015625 " fill-opacity="1" fill-rule="nonzero"/><path fill="#aa1124" d="M 238.417969 3.015625 L 160.117188 3.015625 L 46.191406 159.296875 L 85.777344 179.0625 L 92.421875 306.136719 L 150.898438 353.605469 L 146.371094 178.488281 L 101.9375 187.152344 Z M 238.417969 3.015625 " fill-opacity="1" fill-rule="nonzero"/><path fill="#fec800" d="M 115.257812 211.164062 C 102.339844 211.898438 88.886719 239.160156 87.503906 212.117188 L 85.78125 179.042969 L 46.195312 159.257812 L 160.125 3.015625 L 103.25 3.015625 L -2.804688 134.808594 L 33.417969 152.910156 L 42.261719 265.433594 L 92.429688 306.136719 L 89.304688 248.796875 C 87.125 216.339844 118.027344 295.472656 133.59375 248.636719 C 138.699219 233.253906 131.714844 210.234375 115.257812 211.164062 Z M 115.257812 211.164062 " fill-opacity="1" fill-rule="nonzero"/><path fill="#aa1124" d="M 116.042969 63.449219 C 115.351562 64.378906 107.558594 74.375 103.640625 72.132812 C 97.546875 68.683594 104.808594 58.453125 92.027344 49.292969 C 81.246094 41.558594 70.03125 58.53125 70.03125 58.53125 C 70.03125 58.53125 57.625 74.632812 68.40625 82.363281 C 81.207031 91.542969 91.117188 79.25 96.816406 83.335938 C 98.515625 84.566406 98.398438 87.699219 97.488281 88.925781 L 114.027344 85.714844 Z M 116.042969 63.449219 " fill-opacity="1" fill-rule="nonzero"/></svg>